<?xml version="1.0" encoding="UTF-8"?>
<svg id="Layer_2" data-name="Layer 2" xmlns="http://www.w3.org/2000/svg" viewBox="0 0 778.36 522.18">
  <defs>
    <style>
      .cls-1 {
        font-family: Bicyclette-Regular, Bicyclette;
      }

      .cls-1, .cls-2 {
        font-size: 153.39px;
      }

      .cls-3 {
        fill: none;
      }

      .cls-3, .cls-4, .cls-5 {
        stroke-width: 0px;
      }

      .cls-2 {
        font-family: AktivGrotesk-Bold, 'Aktiv Grotesk';
        font-weight: 700;
      }

      .cls-6 {
        letter-spacing: 0em;
      }

      .cls-4 {
        fill: #13567f;
      }

      .cls-5 {
        fill: #d76900;
      }
    </style>
  </defs>
  <g id="Layer_1-2" data-name="Layer 1">
    <g>
      <rect class="cls-3" width="778.36" height="469.86"/>
      <g>
        <text class="cls-2" transform="translate(96.37 394.72)"><tspan x="0" y="0">Rsk</tspan></text>
        <text class="cls-1" transform="translate(364.17 395.16)"><tspan x="0" y="0">Le</tspan><tspan class="cls-6" x="165.35" y="0">s</tspan><tspan x="238.98" y="0">s</tspan></text>
      </g>
      <path class="cls-5" d="m136.1,222.88c-14-7.08-10.44-72.96,28.69-107.43,32.5-28.63,82.66-29.53,87.31-29.56,22.18-.14,33.86,5.36,57.38-1.14,22.71-6.28,34.87-17.8,39.67-13.32,4.88,4.55.03,23.61-12.77,34.18-21.22,17.51-52.48,1.89-60.2,14.82-5.52,9.24,5.65,25.28,8.18,28.91,24.3,34.9,80.58,44.42,122.63,40.59,28.78-2.63,49.88-11.42,52.78-5.48,2.53,5.17-10.55,17.84-21.97,25.5-45.91,30.84-128.9,23.81-182.7-15.58-13.47-9.86-18.23-16.71-30.95-18.77-42.12-6.81-73.08,54.86-88.04,47.29Z"/>
      <path class="cls-4" d="m638.95,82.13c14.71,5.44,18.7,71.29-16.24,110.01-29.02,32.16-78.75,38.78-83.36,39.34-22.02,2.67-34.25-1.46-56.87,7.69-21.85,8.84-32.61,21.66-37.89,17.76-5.37-3.96-2.72-23.46,8.79-35.41,19.09-19.82,51.92-7.86,58.11-21.59,4.42-9.81-8.5-24.47-11.43-27.79-28.12-31.9-85.13-34.93-126.46-26.32-28.3,5.89-48.25,17.04-51.81,11.47-3.1-4.85,8.45-18.92,18.91-27.84,42.09-35.88,125.34-38.37,183.29-5.38,14.5,8.26,20.02,14.52,32.89,15.11,42.62,1.95,66.34-62.85,82.07-57.03Z"/>
    </g>
  </g>
</svg>