<svg xmlns="http://www.w3.org/2000/svg" viewBox="0 0 960 380" font-family="Arial, sans-serif">
  <defs>
    <style>
      .label { font-family: Arial, sans-serif; font-weight: 700; font-size: 15px; fill: #13567F; }
      .sublabel { font-family: Arial, sans-serif; font-size: 11px; fill: #666; }
      .arrow { stroke: #C9D6DE; stroke-width: 2; fill: none; }
    </style>
  </defs>
  <rect width="960" height="380" fill="#F5F8FA"/>
  <line x1="178" y1="130" x2="302" y2="130" class="arrow" stroke-dasharray="4 5"/>
  <line x1="418" y1="130" x2="542" y2="130" class="arrow" stroke-dasharray="4 5"/>
  <line x1="658" y1="130" x2="782" y2="130" class="arrow" stroke-dasharray="4 5"/>
  <g transform="translate(60,50)">
        
    <circle cx="60" cy="80" r="58" fill="#FBE3D6"/>
    <rect x="38" y="45" width="44" height="75" rx="6" fill="#E8622C"/>
    <rect x="46" y="52" width="28" height="6" rx="3" fill="#FBE3D6"/>
    <rect x="46" y="63" width="28" height="6" rx="3" fill="#FBE3D6"/>
    <rect x="46" y="74" width="28" height="6" rx="3" fill="#FBE3D6"/>
    <path d="M60,38 L52,26 L68,26 Z" fill="#E8622C"/>
    <line x1="30" y1="38" x2="90" y2="38" stroke="#C81E1E" stroke-width="2" stroke-dasharray="3 3"/>
        <text x="60" y="160" text-anchor="middle" class="label">Naphtha Overflows</text>
        <text x="60" y="176" text-anchor="middle" class="label">Vapor Drum</text>
        <text x="60" y="198" text-anchor="middle" class="sublabel">Vessel meant to hold</text>
        <text x="60" y="211" text-anchor="middle" class="sublabel">only vapor</text>
      </g>

  <g transform="translate(300,50)">
        
    <circle cx="60" cy="80" r="58" fill="#DCE9F2"/>
    <circle cx="60" cy="75" r="30" fill="#fff" stroke="#13567F" stroke-width="4"/>
    <line x1="60" y1="75" x2="78" y2="58" stroke="#C81E1E" stroke-width="4" stroke-linecap="round"/>
    <circle cx="60" cy="75" r="4" fill="#13567F"/>
    <rect x="50" y="105" width="20" height="14" rx="3" fill="#13567F"/>
        <text x="60" y="160" text-anchor="middle" class="label">Alarm Flood</text>
        <text x="60" y="182" text-anchor="middle" class="sublabel">3,700+ alarms in 12</text>
        <text x="60" y="195" text-anchor="middle" class="sublabel">hours</text>
      </g>

  <g transform="translate(540,50)">
        
    <circle cx="60" cy="80" r="58" fill="#FBE3D6"/>
    <path d="M60,35 L95,100 L25,100 Z" fill="#E8622C"/>
    <rect x="56" y="58" width="8" height="24" rx="3" fill="#F5F8FA"/>
    <circle cx="60" cy="90" r="4" fill="#F5F8FA"/>
        <text x="60" y="160" text-anchor="middle" class="label">2019 Precedent</text>
        <text x="60" y="176" text-anchor="middle" class="label">Missed</text>
        <text x="60" y="198" text-anchor="middle" class="sublabel">Same vessel overflowed</text>
        <text x="60" y="211" text-anchor="middle" class="sublabel">before</text>
      </g>

  <g transform="translate(780,50)">
        
    <circle cx="60" cy="80" r="58" fill="#FBE3D6"/>
    <path d="M60,35 C45,55 40,68 48,82 C42,80 38,72 40,64 C36,80 45,100 65,100 C82,100 90,85 82,68 C88,74 88,84 84,90 C92,80 90,60 76,45 C78,55 74,62 68,60 C72,50 68,40 60,35 Z" fill="#E8622C"/>
        <text x="60" y="160" text-anchor="middle" class="label">Flash Fire</text>
        <text x="60" y="182" text-anchor="middle" class="sublabel">Two brothers killed</text>
      </g>
  <rect x="0" y="350" width="960" height="30" fill="#13567F"/>
  <text x="480" y="369" text-anchor="middle" fill="#fff" font-size="12" font-family="Arial, sans-serif" font-weight="500">BP-Husky Toledo Refinery Naphtha Fire — 2 killed, 0 injured</text>
</svg>