<svg xmlns="http://www.w3.org/2000/svg" viewBox="0 0 960 380" font-family="Arial, sans-serif">
  <defs>
    <style>
      .label { font-family: Arial, sans-serif; font-weight: 700; font-size: 15px; fill: #13567F; }
      .sublabel { font-family: Arial, sans-serif; font-size: 11px; fill: #666; }
      .arrow { stroke: #C9D6DE; stroke-width: 2; fill: none; }
    </style>
  </defs>
  <rect width="960" height="380" fill="#F5F8FA"/>
  <line x1="178" y1="130" x2="302" y2="130" class="arrow" stroke-dasharray="4 5"/>
  <line x1="418" y1="130" x2="542" y2="130" class="arrow" stroke-dasharray="4 5"/>
  <line x1="658" y1="130" x2="782" y2="130" class="arrow" stroke-dasharray="4 5"/>
  <g transform="translate(60,50)">
        
    <circle cx="60" cy="80" r="58" fill="#DCE9F2"/>
    <rect x="28" y="55" width="64" height="55" rx="8" fill="#13567F"/>
    <ellipse cx="60" cy="55" rx="32" ry="10" fill="#3A7CA5"/>
    <line x1="28" y1="80" x2="92" y2="80" stroke="#E8622C" stroke-width="3"/>
        <text x="60" y="160" text-anchor="middle" class="label">First</text>
        <text x="60" y="176" text-anchor="middle" class="label">Production-Scale</text>
        <text x="60" y="192" text-anchor="middle" class="label">Batch</text>
        <text x="60" y="214" text-anchor="middle" class="sublabel">No scale-up hazard</text>
        <text x="60" y="227" text-anchor="middle" class="sublabel">analysis done</text>
      </g>

  <g transform="translate(300,50)">
        
    <circle cx="60" cy="80" r="58" fill="#DCE9F2"/>
    <circle cx="60" cy="75" r="30" fill="#fff" stroke="#13567F" stroke-width="4"/>
    <line x1="60" y1="75" x2="78" y2="58" stroke="#C81E1E" stroke-width="4" stroke-linecap="round"/>
    <circle cx="60" cy="75" r="4" fill="#13567F"/>
    <rect x="50" y="105" width="20" height="14" rx="3" fill="#13567F"/>
        <text x="60" y="160" text-anchor="middle" class="label">Reaction Goes Out of</text>
        <text x="60" y="176" text-anchor="middle" class="label">Control</text>
        <text x="60" y="198" text-anchor="middle" class="sublabel">Over-pressurized the</text>
        <text x="60" y="211" text-anchor="middle" class="sublabel">reactor</text>
      </g>

  <g transform="translate(540,50)">
        
    <circle cx="60" cy="80" r="58" fill="#DCE9F2"/>
    <ellipse cx="60" cy="72" rx="34" ry="18" fill="#8FA9BC"/>
    <ellipse cx="40" cy="80" rx="20" ry="13" fill="#8FA9BC"/>
    <ellipse cx="82" cy="80" rx="20" ry="13" fill="#8FA9BC"/>
        <text x="60" y="160" text-anchor="middle" class="label">Toxic Vapor Released</text>
        <text x="60" y="176" text-anchor="middle" class="label">8+ Hours</text>
        <text x="60" y="198" text-anchor="middle" class="sublabel">200+ families evacuated</text>
      </g>

  <g transform="translate(780,50)">
        
    <circle cx="60" cy="80" r="58" fill="#FBE3D6"/>
    <circle cx="60" cy="52" r="14" fill="#13567F"/>
    <path d="M38,105 C38,80 48,70 60,70 C72,70 82,80 82,105 Z" fill="#13567F"/>
        <text x="60" y="160" text-anchor="middle" class="label">154 Treated for</text>
        <text x="60" y="176" text-anchor="middle" class="label">Exposure</text>
        <text x="60" y="198" text-anchor="middle" class="sublabel">Responders lacked proper</text>
        <text x="60" y="211" text-anchor="middle" class="sublabel">PPE</text>
      </g>
  <rect x="0" y="350" width="960" height="30" fill="#13567F"/>
  <text x="480" y="369" text-anchor="middle" fill="#fff" font-size="12" font-family="Arial, sans-serif" font-weight="500">MFG Chemical Runaway Reaction and Toxic Vapor Release — 0 killed, 154 injured</text>
</svg>