<svg xmlns="http://www.w3.org/2000/svg" viewBox="0 0 960 380" font-family="Arial, sans-serif">
  <defs>
    <style>
      .label { font-family: Arial, sans-serif; font-weight: 700; font-size: 15px; fill: #13567F; }
      .sublabel { font-family: Arial, sans-serif; font-size: 11px; fill: #666; }
      .arrow { stroke: #C9D6DE; stroke-width: 2; fill: none; }
    </style>
  </defs>
  <rect width="960" height="380" fill="#F5F8FA"/>
  <line x1="178" y1="130" x2="302" y2="130" class="arrow" stroke-dasharray="4 5"/>
  <line x1="418" y1="130" x2="542" y2="130" class="arrow" stroke-dasharray="4 5"/>
  <line x1="658" y1="130" x2="782" y2="130" class="arrow" stroke-dasharray="4 5"/>
  <g transform="translate(60,50)">
        
    <circle cx="60" cy="80" r="58" fill="#DCE9F2"/>
    <circle cx="52" cy="70" r="22" fill="none" stroke="#13567F" stroke-width="6"/>
    <line x1="68" y1="86" x2="88" y2="106" stroke="#13567F" stroke-width="7" stroke-linecap="round"/>
    <rect x="42" y="60" width="20" height="4" fill="#E8622C"/>
    <rect x="42" y="68" width="20" height="4" fill="#E8622C"/>
        <text x="60" y="160" text-anchor="middle" class="label">Inaccurate Safety</text>
        <text x="60" y="176" text-anchor="middle" class="label">Data Sheet</text>
        <text x="60" y="198" text-anchor="middle" class="sublabel">Real decomposition point</text>
        <text x="60" y="211" text-anchor="middle" class="sublabel">known but not shared</text>
      </g>

  <g transform="translate(300,50)">
        
    <circle cx="60" cy="80" r="58" fill="#DCE9F2"/>
    <circle cx="60" cy="75" r="30" fill="#fff" stroke="#13567F" stroke-width="4"/>
    <line x1="60" y1="75" x2="78" y2="58" stroke="#C81E1E" stroke-width="4" stroke-linecap="round"/>
    <circle cx="60" cy="75" r="4" fill="#13567F"/>
    <rect x="50" y="105" width="20" height="14" rx="3" fill="#13567F"/>
        <text x="60" y="160" text-anchor="middle" class="label">No Thermal Testing</text>
        <text x="60" y="176" text-anchor="middle" class="label">Done</text>
        <text x="60" y="198" text-anchor="middle" class="sublabel">First use of this</text>
        <text x="60" y="211" text-anchor="middle" class="sublabel">compound in this</text>
        <text x="60" y="224" text-anchor="middle" class="sublabel">equipment</text>
      </g>

  <g transform="translate(540,50)">
        
    <circle cx="60" cy="80" r="58" fill="#FBE3D6"/>
    <path d="M60,30 L70,55 L95,50 L78,70 L100,90 L72,86 L75,112 L60,92 L45,112 L48,86 L20,90 L42,70 L25,50 L50,55 Z" fill="#E8622C"/>
    <circle cx="60" cy="78" r="14" fill="#C81E1E"/>
        <text x="60" y="160" text-anchor="middle" class="label">Dryer Explodes</text>
        <text x="60" y="182" text-anchor="middle" class="sublabel">Decomposition reaction</text>
        <text x="60" y="195" text-anchor="middle" class="sublabel">built pressure fast</text>
      </g>

  <g transform="translate(780,50)">
        
    <circle cx="60" cy="80" r="58" fill="#DCE9F2"/>
    <ellipse cx="60" cy="72" rx="34" ry="18" fill="#8FA9BC"/>
    <ellipse cx="40" cy="80" rx="20" ry="13" fill="#8FA9BC"/>
    <ellipse cx="82" cy="80" rx="20" ry="13" fill="#8FA9BC"/>
        <text x="60" y="160" text-anchor="middle" class="label">Chlorine Release</text>
        <text x="60" y="182" text-anchor="middle" class="sublabel">A 2-mile</text>
        <text x="60" y="195" text-anchor="middle" class="sublabel">shelter-in-place was</text>
        <text x="60" y="208" text-anchor="middle" class="sublabel">ordered</text>
      </g>
  <rect x="0" y="350" width="960" height="30" fill="#13567F"/>
  <text x="480" y="369" text-anchor="middle" fill="#fff" font-size="12" font-family="Arial, sans-serif" font-weight="500">Optima Belle Double Cone Dryer Explosion — 1 killed, 3 injured</text>
</svg>